:SAMPLES-PER-SECOND 30
:FULLY-SPECIFIED
:DEGREES
161
root  -79.4104 41.7666 -4.80896 178.338 -83.8601 -178.417
RightUpLeg  -2.58707 -7.41315 -4.58904
RightLeg  2.23686 -4.85378 3.48106
RightFoot  1.81758 0.0522876 -0.409834
RightToes  -1.74624e-010 0 -3.6325e-017
Spine  4.04077 0.240078 5.14961
Spine1  1.9632 1.64314 -6.49155
HEad  -10.2773 4.97017 1.43316
LeftShoulder1  0.507766 -1.18783 -2.65361
LeftArm  -14.5109 14.9162 -3.34132
LeftForeArm  17.9564 -6.52735 -2.49477
LeftHand  -0.244104 0.0205437 5.32207
RightShoulder  0.648597 0.019388 11.2369
RightArm  -16.772 -0.0596119 -6.06946
RightForeArm  -11.1038 1.98909 5.34129
RightHand  -1.05221 3.51761 -13.8561
LeftUpLeg  -1.08592 5.57473 4.19002
LeftLeg  3.99977 8.99087 -3.15883
LeftFoot  -2.66946 -0.0344809 0.656069
LeftToes  -6.82154e-011 1.37952e-011 -1.79748e-011
162
root  -79.483 41.7663 -4.8794 179.109 -84.0928 -178.978
RightUpLeg  -2.76407 -7.39085 -4.54103
RightLeg  2.4569 -5.09846 3.42816
RightFoot  1.60283 0.0572427 -0.47444
RightToes  -1.74624e-010 0 -3.6325e-017
Spine  3.86482 0.268691 4.84175
Spine1  2.24547 1.60812 -6.12581
HEad  -10.7073 4.80057 1.33945
LeftShoulder1  0.506108 -1.03457 -3.016
LeftArm  -14.6115 14.6288 -2.8157
LeftForeArm  17.1256 -6.43278 -2.48484
LeftHand  -0.244104 0.0205437 5.32207
RightShoulder  0.560318 -0.382602 10.7409
RightArm  -15.6226 0.80031 -5.94238
RightForeArm  -15.6042 1.04745 5.99927
RightHand  -1.40452 4.72429 -16.3074
LeftUpLeg  -1.17093 5.57162 4.2157
LeftLeg  3.89215 8.77013 -3.20462
LeftFoot  -2.62273 -0.0302826 0.606785
LeftToes  -6.82154e-011 1.37952e-011 -1.79748e-011
163
root  -79.5557 41.77 -4.94893 -179.879 -84.3964 -179.835
RightUpLeg  -2.82938 -7.36238 -4.52548
RightLeg  2.59842 -5.44043 3.35597
RightFoot  1.37341 0.0597753 -0.500957
RightToes  -1.74624e-010 0 -3.6325e-017
Spine  3.91 0.230547 4.35245
Spine1  2.10813 1.47516 -5.7092
HEad  -10.5441 4.5679 1.41792
LeftShoulder1  0.506252 -1.06404 -2.94064
LeftArm  -15.1486 15.0496 -2.60363
LeftForeArm  16.8179 -6.9548 -2.30794
LeftHand  -0.244104 0.0205437 5.32207
RightShoulder  0.54958 -0.385249 10.3691
RightArm  -14.7599 1.08566 -6.00676
RightForeArm  -18.1095 0.463206 6.40397
RightHand  -1.59866 5.28889 -17.5658
LeftUpLeg  -1.15003 5.44352 4.16755
LeftLeg  3.64505 8.59714 -3.18761
LeftFoot  -2.52381 -0.0296091 0.596317
LeftToes  -6.82154e-011 1.37952e-011 -1.79748e-011
164
root  -79.6344 41.7775 -5.00418 -179.8 -84.7359 -179.841
RightUpLeg  -2.66163 -7.36143 -4.50094
RightLeg  2.49413 -5.7846 3.39272
RightFoot  1.21757 0.0597119 -0.487306
RightToes  -1.74624e-010 0 -3.6325e-017
Spine  3.8728 0.123836 4.19751
Spine1  2.13513 1.35211 -5.6645
HEad  -10.3659 4.63386 1.40216
LeftShoulder1  0.494134 -1.0264 -2.74148
LeftArm  -15.451 15.247 -2.55119
LeftForeArm  16.6504 -7.26441 -2.22284
LeftHand  -0.244104 0.0205437 5.32207
RightShoulder  0.531417 -0.460268 10.1891
RightArm  -15.0616 0.885921 -6.03926
RightForeArm  -16.1987 0.801292 6.18531
RightHand  -1.43754 4.68229 -16.7157
LeftUpLeg  -1.01616 5.32955 4.17247
LeftLeg  3.36234 8.36154 -3.11324
LeftFoot  -2.42595 -0.0261535 0.542612
LeftToes  -6.82154e-011 1.37952e-011 -1.79748e-011
165
root  -79.7165 41.7843 -5.049 -179.994 -85.0213 -179.578
RightUpLeg  -2.47443 -7.38639 -4.47828
RightLeg  2.35164 -6.02575 3.47097
RightFoot  1.1129 0.0608093 -0.492456
RightToes  -1.74624e-010 0 -3.6325e-017
Spine  3.7434 0.0424768 4.31101
Spine1  2.12926 1.3132 -5.91473
HEad  -9.89555 4.88204 1.24791
LeftShoulder1  0.464213 -0.811373 -2.56985
LeftArm  -15.2875 14.8471 -2.54261
LeftForeArm  16.2568 -7.15356 -2.33553
LeftHand  -0.244104 0.0205437 5.32207
RightShoulder  0.514956 -0.561982 10.2362
RightArm  -16.2179 0.363038 -6.18748
RightForeArm  -8.70495 1.43834 5.34744
RightHand  -1.04778 3.88268 -13.2795
LeftUpLeg  -0.877549 5.28401 4.21605
LeftLeg  3.11677 8.11453 -3.07333
LeftFoot  -2.33843 -0.0207561 0.458728
LeftToes  -6.82154e-011 1.37952e-011 -1.79748e-011
166
root  -79.7926 41.7887 -5.09611 -179.585 -85.2266 -179.879
RightUpLeg  -2.42571 -7.38574 -4.45409
RightLeg  2.34556 -6.21758 3.47134
RightFoot  0.977775 0.0632967 -0.523049
RightToes  -1.74624e-010 0 -3.6325e-017
Spine  3.67776 0.0338984 4.2255
Spine1  1.8799 1.28106 -5.87697
HEad  -9.1158 4.89868 0.984116
LeftShoulder1  0.408439 -0.224926 -2.77586
LeftArm  -14.7643 13.7261 -2.34346
LeftForeArm  15.8013 -6.77904 -2.62928
LeftHand  -0.244104 0.0205437 5.32207
RightShoulder  0.516598 -0.537669 10.1395
RightArm  -17.1672 -0.694842 -6.35198
RightForeArm  0.490335 2.85208 4.49129
RightHand  -0.669297 3.56258 -8.96661
LeftUpLeg  -0.808174 5.2639 4.24175
LeftLeg  2.92984 7.93192 -3.0831
LeftFoot  -2.26861 -0.0140922 0.355164
LeftToes  -6.82154e-011 1.37952e-011 -1.79748e-011
